<?xml version="1.0" standalone="no"?>
<!DOCTYPE svg PUBLIC "-//W3C//DTD SVG 20010904//EN"
 "http://www.w3.org/TR/2001/REC-SVG-20010904/DTD/svg10.dtd">
<svg version="1.0" xmlns="http://www.w3.org/2000/svg"
 width="800.000000pt" height="800.000000pt" viewBox="0 0 800.000000 800.000000"
 preserveAspectRatio="xMidYMid meet">

<g transform="translate(0.000000,800.000000) scale(0.100000,-0.100000)"
fill="#000000" stroke="none">
<path d="M4986 6945 c-13 -51 -92 -167 -158 -232 -157 -154 -370 -245 -707
-303 -160 -27 -250 -54 -356 -104 -277 -133 -449 -367 -500 -681 -14 -81 -22
-345 -10 -334 2 3 9 61 15 129 31 383 196 658 479 804 117 60 180 80 388 121
327 64 488 133 660 282 96 84 212 276 200 332 -2 9 -6 4 -11 -14z"/>
<path d="M5432 6657 c-115 -314 -351 -555 -632 -645 -36 -12 -140 -35 -232
-52 -203 -37 -317 -69 -426 -120 -226 -106 -352 -257 -388 -463 -8 -48 -14
-108 -12 -135 3 -42 5 -37 19 50 29 169 109 304 233 392 137 98 293 155 570
206 183 34 260 57 361 107 184 92 346 256 444 451 37 73 104 267 99 287 -2 7
-18 -28 -36 -78z"/>
<path d="M5921 6445 c-92 -247 -279 -537 -461 -715 -251 -247 -525 -373 -910
-420 -61 -7 -43 -8 95 -5 180 4 238 14 395 70 161 58 318 163 466 310 181 181
314 402 404 674 42 129 50 191 11 86z"/>
<path d="M1760 5018 c1 -79 38 -364 56 -420 5 -17 123 -18 2303 -18 l2298 0
17 98 c24 140 35 238 36 310 l0 62 -2355 0 -2355 0 0 -32z"/>
<path d="M1858 4454 c-8 -7 59 -197 111 -314 194 -436 552 -830 973 -1073 l47
-27 1128 0 1128 0 69 40 c173 101 324 220 478 376 189 191 322 379 437 614 60
122 151 352 151 381 0 10 -4512 13 -4522 3z m2415 -88 c67 -28 91 -86 74 -181
-26 -148 -243 -448 -493 -683 -97 -90 -105 -101 -95 -121 22 -39 69 -56 156
-54 167 3 417 108 800 333 310 183 688 385 922 494 213 99 230 101 88 14 -173
-107 -331 -209 -765 -494 -212 -138 -439 -282 -505 -318 -230 -126 -417 -188
-566 -190 -77 0 -92 3 -152 32 -58 29 -85 53 -124 111 -1 2 -37 -15 -80 -37
-109 -56 -188 -75 -289 -69 -163 10 -263 92 -315 258 -24 76 -24 123 0 53 89
-261 326 -328 573 -161 l62 42 1 130 c1 115 4 139 29 210 93 269 342 558 538
626 64 22 98 23 141 5z"/>
<path d="M4091 4150 c-91 -69 -168 -153 -233 -255 -72 -112 -128 -253 -127
-320 0 -29 2 -27 75 50 139 147 314 392 361 505 41 100 33 102 -76 20z"/>
<path d="M3042 2944 c-41 -29 -52 -66 -52 -179 l0 -105 34 -38 34 -37 1041 -3
c1151 -3 1080 -6 1121 61 26 42 29 211 5 257 -33 63 28 60 -1117 60 -929 0
-1046 -2 -1066 -16z"/>
<path d="M3477 2079 c-16 -10 -93 -148 -82 -149 3 -1 42 -1 87 -1 l82 -1 15
31 15 31 109 0 109 0 -25 -42 -25 -43 -90 -3 c-83 -3 -90 -4 -96 -25 -11 -43
-7 -77 10 -77 14 0 16 -9 10 -62 -13 -123 -15 -128 -47 -128 -26 0 -28 3 -24
28 8 47 35 242 35 252 0 6 -36 10 -84 10 l-83 0 -6 -37 c-3 -21 -23 -170 -43
-330 l-38 -293 21 -27 c36 -50 52 -53 288 -53 334 0 316 -19 369 386 20 159
40 304 43 322 5 29 3 32 -21 32 -14 0 -26 3 -26 6 0 3 17 37 38 75 58 108 68
104 -254 106 -172 2 -275 -1 -287 -8z m368 -306 c-3 -21 -9 -65 -13 -98 -7
-56 -9 -60 -34 -63 -32 -4 -32 -8 -17 110 12 88 12 88 40 88 28 0 29 -2 24
-37z m-281 -295 c-3 -18 -11 -73 -17 -123 -10 -74 -15 -90 -31 -93 -35 -7 -38
11 -22 127 9 61 16 114 16 116 0 3 13 5 29 5 28 0 29 -2 25 -32z m246 29 c0
-22 -31 -231 -35 -238 -4 -5 -18 -9 -31 -9 -23 0 -25 3 -20 28 3 15 10 71 17
125 l11 97 29 0 c16 0 29 -1 29 -3z"/>
<path d="M4129 2083 c-1 -5 0 -23 1 -40 1 -23 -3 -33 -13 -33 -20 0 -36 -21
-43 -58 l-6 -32 106 0 c58 0 106 -4 106 -9 0 -12 -18 -155 -26 -198 l-5 -33
-84 0 c-97 0 -125 -16 -125 -70 l0 -30 100 0 101 0 -5 -32 c-3 -18 -10 -69
-16 -113 -6 -44 -13 -92 -16 -107 l-6 -28 -92 0 c-103 0 -126 -12 -126 -63 l0
-27 105 0 c121 0 112 12 91 -122 l-13 -88 113 0 c129 0 118 -8 129 105 10 112
3 105 109 105 102 0 111 4 122 58 l7 32 -107 0 c-95 0 -106 2 -105 18 0 9 8
73 17 142 l17 125 75 3 c100 3 115 7 128 37 24 53 20 55 -88 55 -73 0 -100 3
-100 13 0 6 7 57 15 112 8 55 15 103 15 108 0 4 41 7 90 7 77 0 93 3 110 20
28 28 27 70 -1 70 -21 0 -22 14 -3 64 5 14 -6 16 -84 16 -103 0 -137 -11 -158
-52 -13 -24 -20 -28 -59 -28 -35 0 -45 4 -50 20 -14 44 -52 60 -141 60 -46 0
-84 -3 -85 -7z"/>
<path d="M5276 2075 c-15 -16 -20 -35 -34 -135 l-7 -55 -87 -10 c-48 -6 -92
-15 -98 -21 -13 -13 -29 -76 -30 -111 0 -21 2 -21 95 -16 52 3 95 4 95 1 0 -3
-20 -146 -45 -318 -43 -298 -44 -314 -29 -347 31 -65 15 -63 627 -63 614 0
581 -4 553 64 -28 68 -15 66 -482 66 -232 0 -429 3 -438 6 -11 4 -16 19 -16
43 0 30 62 470 76 538 5 27 13 28 503 49 394 16 416 19 459 67 23 25 46 94 33
100 -3 2 -222 -6 -486 -19 -264 -12 -481 -21 -483 -19 -3 2 15 132 24 173 4
22 3 22 -105 22 -85 0 -113 -3 -125 -15z"/>
<path d="M1600 1644 c-37 -32 -55 -65 -64 -121 l-6 -43 675 0 c738 0 711 -2
753 58 11 15 25 51 30 80 l9 52 -683 0 -682 0 -32 -26z"/>
<path d="M3665 1109 c-365 -14 -344 -11 -371 -42 -13 -16 -24 -37 -24 -49 0
-20 2 -20 258 -14 141 4 279 9 306 13 57 6 96 38 96 78 0 21 -4 25 -27 23 -16
0 -122 -5 -238 -9z"/>
</g>
</svg>
