<?xml version="1.0" standalone="no"?>
<!DOCTYPE svg PUBLIC "-//W3C//DTD SVG 20010904//EN"
 "http://www.w3.org/TR/2001/REC-SVG-20010904/DTD/svg10.dtd">
<svg version="1.0" xmlns="http://www.w3.org/2000/svg"
 width="104.000000pt" height="104.000000pt" viewBox="0 0 104.000000 104.000000"
 preserveAspectRatio="xMidYMid meet">

<g transform="translate(0.000000,104.000000) scale(0.100000,-0.100000)"
fill="#000000" stroke="none">
<path d="M438 910 c-16 -16 -35 -30 -42 -30 -6 0 -22 -7 -34 -16 -42 -29 -19
-114 31 -114 12 0 17 -9 17 -31 0 -22 -10 -40 -37 -66 -33 -31 -44 -36 -80
-34 -58 3 -93 -31 -93 -89 0 -43 33 -90 63 -90 8 0 20 -7 27 -15 7 -8 23 -15
36 -15 13 0 28 -8 33 -18 5 -10 30 -29 54 -42 37 -20 42 -26 32 -37 -8 -7 -34
-13 -58 -13 l-45 0 0 -48 c1 -64 22 -96 60 -88 24 5 30 2 38 -20 9 -24 13 -25
82 -22 66 3 73 5 76 25 3 18 8 21 36 16 28 -4 34 -1 45 24 7 15 15 47 16 71
l4 42 -49 0 c-63 0 -68 17 -16 51 23 14 47 33 55 42 7 9 21 17 31 17 10 0 23
7 30 15 7 8 19 15 27 15 30 0 63 47 63 90 0 59 -35 92 -93 88 -35 -2 -46 1
-64 22 -11 14 -33 32 -47 39 -26 14 -38 61 -16 61 20 0 60 49 60 73 0 32 -29
66 -59 69 -13 2 -36 15 -51 31 -40 38 -91 37 -132 -3z m124 -10 c16 -17 40
-30 54 -30 34 0 60 -43 46 -76 -7 -13 -23 -29 -37 -34 -17 -6 -25 -17 -25 -32
0 -22 -4 -23 -67 -23 -38 0 -78 -4 -90 -8 -21 -8 -23 -5 -23 27 0 27 -4 36
-17 36 -25 0 -53 30 -53 56 0 22 33 54 56 54 7 0 26 14 42 30 19 18 41 30 57
30 16 0 38 -12 57 -30z m85 -378 c22 -6 48 -12 57 -12 9 0 16 -8 16 -19 0 -10
6 -24 14 -31 20 -16 8 -43 -15 -37 -12 3 -32 -8 -57 -33 -79 -79 -204 -78
-284 2 -25 25 -43 35 -56 31 -27 -7 -36 23 -12 40 11 8 18 16 15 19 -3 3 13 8
37 12 55 9 104 40 134 85 l24 37 43 -41 c23 -22 61 -46 84 -53z m-73 -211 c13
-5 3 -8 -32 -9 -28 0 -54 3 -57 9 -7 11 61 11 89 0z m106 -42 c0 -15 -5 -19
-22 -17 -18 2 -25 -4 -33 -30 -6 -17 -16 -37 -23 -44 -7 -7 -12 -18 -12 -25 0
-9 -19 -13 -70 -13 -54 0 -70 3 -70 15 0 7 -6 18 -14 22 -8 4 -18 24 -23 43
-7 26 -15 35 -29 33 -20 -2 -36 15 -28 29 3 4 77 8 165 8 154 0 159 -1 159
-21z m-293 -35 c-3 -3 -12 -4 -19 -1 -8 3 -5 6 6 6 11 1 17 -2 13 -5z m290 0
c-3 -3 -12 -4 -19 -1 -8 3 -5 6 6 6 11 1 17 -2 13 -5z m-290 -20 c-3 -3 -12
-4 -19 -1 -8 3 -5 6 6 6 11 1 17 -2 13 -5z m286 -1 c-7 -2 -19 -2 -25 0 -7 3
-2 5 12 5 14 0 19 -2 13 -5z m-276 -19 c-3 -3 -12 -4 -19 -1 -8 3 -5 6 6 6 11
1 17 -2 13 -5z m270 0 c-3 -3 -12 -4 -19 -1 -8 3 -5 6 6 6 11 1 17 -2 13 -5z
m-260 -20 c-3 -3 -12 -4 -19 -1 -8 3 -5 6 6 6 11 1 17 -2 13 -5z m250 0 c-3
-3 -12 -4 -19 -1 -8 3 -5 6 6 6 11 1 17 -2 13 -5z"/>
<path d="M447 787 c-4 -11 9 -14 63 -14 54 0 67 3 63 14 -4 9 -12 11 -22 7 -9
-4 -27 -8 -41 -8 -14 0 -32 4 -41 8 -10 4 -18 2 -22 -7z"/>
<path d="M440 480 c0 -5 7 -10 15 -10 8 0 15 5 15 10 0 6 -7 10 -15 10 -8 0
-15 -4 -15 -10z"/>
<path d="M570 480 c0 -5 5 -10 10 -10 6 0 10 5 10 10 0 6 -4 10 -10 10 -5 0
-10 -4 -10 -10z"/>
</g>
</svg>
